<svg version="1.1" viewBox="0 0 401.71 504.73" xmlns="http://www.w3.org/2000/svg">
 <defs>
  <style>.cls-1{fill:#fff;}.cls-2{fill:#fdbd43;}.cls-3{fill:#febe44;}</style>
 </defs>
 <title>Asset 1</title>
 <g data-name="Layer 2">
  <g data-name="Layer 3">
   <path class="cls-1" d="M160.17,330.9a32.63,32.63,0,0,1,2.43,7.28,83.79,83.79,0,0,1,1.71,12.39c.25,3.35.29,6.69.33,10,0,1.06,0,1.08,1.05,1.08h13.77a5.39,5.39,0,0,0,4.25-1.92,25.41,25.41,0,0,0,2.63-3.69c.87-1.45,1.76-2.9,2.69-4.32a3.27,3.27,0,0,1,2.83-1.68,1.87,1.87,0,0,1,2.16,2c.13,1.74.24,3.48.21,5.23a8.43,8.43,0,0,0,.21,2.32,2.49,2.49,0,0,0,2.44,2.05,45.74,45.74,0,0,0,5,0,5,5,0,0,0,3.53-1.93,29.12,29.12,0,0,0,2.9-4.18c.77-1.31,1.53-2.61,2.36-3.88a3.06,3.06,0,0,1,2.88-1.56,1.93,1.93,0,0,1,2,1.84,37.24,37.24,0,0,1,.26,5.5,7.32,7.32,0,0,0,.21,2,2.57,2.57,0,0,0,2.62,2.2c.73.06,1.47,0,2.2,0,3,0,6,0,9,0,.63,0,.9-.15.88-.84a55.72,55.72,0,0,0-1.49-12.82,7,7,0,0,0-.54-1.56,1.18,1.18,0,0,1,.25-1.57q6.45-6.79,12.87-13.61a.61.61,0,0,1,.51-.28,5.27,5.27,0,0,1,.81,1.66,49.27,49.27,0,0,1,2.74,11.76,129.06,129.06,0,0,1,.91,16.76q0,9.43,0,18.87c0,.23,0,.46,0,.69,0,.49-.12.8-.7.74-.27,0-.55,0-.83,0-7.76,0-15.52-.13-23.28,0a11.3,11.3,0,0,1-11.25-7.62,3.3,3.3,0,0,0-.52-1.13,4.08,4.08,0,0,0-.74,1.29,15.14,15.14,0,0,1-5.23,5.91,9.13,9.13,0,0,1-9.43.42,10.86,10.86,0,0,1-5.39-5.84c-.24-.58-.47-1.16-.72-1.79-.51.33-.6.86-.82,1.29a15,15,0,0,1-5.57,6.14,8.35,8.35,0,0,1-4.43,1.28c-3.31,0-6.61,0-9.92,0a6.87,6.87,0,0,1-5.29-2.53,16.27,16.27,0,0,1-2.94-4.95c-.15-.38-.28-.77-.44-1.2a3,3,0,0,0-.55,1.26,27.05,27.05,0,0,1-1.94,4.4,5.56,5.56,0,0,1-4.93,3c-.46,0-.92,0-1.38,0H128a4.72,4.72,0,0,1-.69,0c-.66-.1-.88.24-1,.83-.23,1.45-.46,2.9-.78,4.33a78.78,78.78,0,0,1-8.24,21.07c-2.43,4.43-5.25,8.62-8.08,12.8-.36.53-.61.65-1.19.31q-8.56-5-17.16-9.95c0-.56.51-.74.82-1a103.36,103.36,0,0,0,18.76-23.47c.57-1,1-2,1.59-3.05a13.19,13.19,0,0,0,.8-10.53,34.31,34.31,0,0,0-5.23-10.09c-.83-1.15-1.71-2.27-2.59-3.39s-.84-.83,0-1.78l8.17-9,5.2-5.69c.18-.2.35-.41.55-.66a3.24,3.24,0,0,1,1,1.27,55.69,55.69,0,0,1,6.06,16.6c.39,1.94,0,1.66,2,1.64,5.88-.05,11.75-.05,17.63-.07.69,0,1.38,0,2.07,0s.84-.12.82-.75a49.53,49.53,0,0,0-2-14.39,1.43,1.43,0,0,1,.32-1.69q6.46-6.78,12.87-13.6A5.62,5.62,0,0,1,160.17,330.9Z"/>
   <path class="cls-1" d="M302.61,361.65a22.21,22.21,0,0,0-2.13-7.47,36.8,36.8,0,0,0-11.66-13.7,41.84,41.84,0,0,0-11.68-6.05c-1-.34-1-.36-.69-1.42,1.62-4.92,3.25-9.84,4.84-14.77a2,2,0,0,1,1.18-1.37q21.2-9,42.39-18l.61-.24c.36.24.17.52.11.76-1.27,5.12-2.57,10.22-3.8,15.35a2.23,2.23,0,0,1-1.51,1.71q-11,4.53-22,9.13l-1.11.47c-.07.27.07.36.24.45a34,34,0,0,1,11.91,10,52.73,52.73,0,0,1,10.7,23,34.74,34.74,0,0,1,.53,6.57c0,4.73,0,9.46,0,14.18,0,.28,0,.55,0,.83a.45.45,0,0,1-.52.49H257.26c-1.69,0-1.46.14-1.58-1.44q-1-13.65-2.08-27.31c-.42-5.58-.8-11.16-1.22-16.75q-.75-9.95-1.54-19.9c-.18-2.27-.19-2.27,1.37-3.83,4.39-4.38,8.58-8.94,12.72-13.55.58-.65,1.2-1.27,1.81-1.89a2.2,2.2,0,0,1,1.3-.72,1.2,1.2,0,0,1,1.53,1,6.13,6.13,0,0,1,.19,1.77q.16,18.59.32,37.18.11,12.25.24,24.51c0,1.09,0,1.11,1,1.11H301.9C302.08,361.7,302.26,361.67,302.61,361.65Z"/>
   <path class="cls-1" d="M303.74,457.95c.09.16.11.22.14.24,3.56,1.33,5.36,4.33,6.93,7.46,1.42,2.82,2.63,5.76,3.94,8.63a5.09,5.09,0,0,0,.84,1.55,3.84,3.84,0,0,0,.52-1.23l13.67-41.4a4.17,4.17,0,0,0,.21-.65c.1-.68.5-.86,1.15-.85,4,0,8.08,0,12.12,0,.83,0,1.1.33,1.33,1,1.53,4.71,3.09,9.41,4.65,14.11l10.17,30.67c.13.39.23.78.34,1.15a1,1,0,0,1-.81.2H347.65c-.93,0-1.11.13-1.39-1-.47-2-1.06-3.89-1.56-5.85a1,1,0,0,0-1.13-.87q-6.47.05-12.95,0a1,1,0,0,0-1.12.87c-.47,2-1.06,3.9-1.51,5.86-.17.76-.45,1-1.27,1q-11.7,0-23.41,0a1.46,1.46,0,0,1-1.5-1.07q-3.12-6.67-6.28-13.31a27.33,27.33,0,0,0-1.3-2.42,5,5,0,0,0-4.81-2.34c-.45,0-.68.16-.66.64,0,.32,0,.64,0,1q0,8,0,16c0,.32,0,.64,0,1s-.2.58-.59.57h-11c-1.17,0-1.18,0-1.18-1.22q0-13.29,0-26.58,0-8.81,0-17.63c0-.32,0-.64,0-1,0-.51.16-.78.71-.74.27,0,.55,0,.83,0H298a35.86,35.86,0,0,1,6,.53,10.33,10.33,0,0,1,8.7,7.78,16.49,16.49,0,0,1,.39,7.9c-.94,4.9-3.69,8.3-8.6,9.76Zm-15-11.84c0,1.33,0,2.66,0,4,0,.46.05.81.65.8,2.84,0,5.68.2,8.45-.75a3.75,3.75,0,0,0,2.18-1.77,4.54,4.54,0,0,0-3.68-7c-2.28-.18-4.58-.07-6.88-.11-.53,0-.72.2-.72.73C288.79,443.35,288.78,444.73,288.78,446.11Zm53,14.69-4.49-16.57H337l-4.47,16.53A70.67,70.67,0,0,0,341.74,460.8Z"/>
   <path class="cls-1" d="M344.6,342.21a17.57,17.57,0,0,1,1.75,2.93,56.91,56.91,0,0,1,5.23,15.3c0,.22.08.45.12.68.08.56.4.73,1,.7,1.28-.07,2.57-.12,3.85-.12h25.75c1,0,1.05,0,1-1.08a46.11,46.11,0,0,0-2.14-14.36c-.25-.7.13-1,.5-1.41l10.77-11.42,2.45-2.58a24.81,24.81,0,0,1,1.9,5.1A71.1,71.1,0,0,1,399,349.79c.67,9,.4,18,.45,27,0,1.15,0,2.29,0,3.44,0,1.45,0,1.3-1.37,1.31H353.46c-.28,0-.55,0-.83,0-.53,0-.69.22-.76.72-1.75,12-6.83,22.57-13.32,32.59-1.25,1.92-2.55,3.81-3.8,5.74-.34.53-.62.62-1.2.28q-8.55-5-17.13-9.92c0-.56.43-.7.7-1a102.33,102.33,0,0,0,19.26-24.27c.51-.92.95-1.88,1.42-2.83a12.59,12.59,0,0,0,.72-9.5A30.75,30.75,0,0,0,334.7,365a65.42,65.42,0,0,0-4.4-6c-.34-.41-.48-.69,0-1.15C335,352.71,339.74,347.52,344.6,342.21Z"/>
   <path class="cls-1" d="M64.74,337.77a32.08,32.08,0,0,1,1.66,4,81.07,81.07,0,0,1,4.26,19,90.16,90.16,0,0,1,.47,14.29C70.6,386,67,395.67,59.52,403.7a39.61,39.61,0,0,1-24.76,12.55,33.55,33.55,0,0,1-20.88-3.85A25.52,25.52,0,0,1,1,394.92a44.31,44.31,0,0,1,.9-21.78A86,86,0,0,1,6.72,360a15.48,15.48,0,0,1,2.46-4A6.26,6.26,0,0,1,12,354.15a3.1,3.1,0,0,1,3.79,1.44,6.06,6.06,0,0,1,.72,4.25,15.82,15.82,0,0,1-1.21,3.65,46.17,46.17,0,0,0-3.5,10.84,23.22,23.22,0,0,0,.52,10.77c1.88,6.35,6.23,10.11,12.59,11.59a25.74,25.74,0,0,0,14.37-.88,31.86,31.86,0,0,0,16.9-13,3.48,3.48,0,0,0,.58-2.45,80,80,0,0,0-8-26.75c-.28-.55-.41-.92.13-1.41q7.78-7.1,15.52-14.25A1.21,1.21,0,0,1,64.74,337.77Z"/>
   <path class="cls-1" d="m374 453.16v1.6q0 11.15 0 22.31a7.69 7.69 0 0 0 0 0.83c0.08 0.69-0.17 1-0.91 1h-6.61-3.72c-0.51 0-0.78-0.14-0.74-0.7v-0.83q0-22 0-44.06c0-1.78-0.15-1.54 1.54-1.55h8.95a2.13 2.13 0 0 1 2.18 1.2c4.6 7.78 9.26 15.52 13.91 23.27 0.26 0.43 0.53 0.85 0.86 1.39a2.54 2.54 0 0 0 0.2-1.5q0-11.15 0-22.31v-0.83c0-1.19 0-1.2 1.21-1.2h9.5c1.43 0 1.35-0.1 1.35 1.34q0 13.84 0 27.68 0 8.26 0 16.52v1c0 0.49-0.23 0.65-0.67 0.63h-0.55-9.78a1.63 1.63 0 0 1-1.62-0.95c-2.12-3.6-4.29-7.16-6.44-10.74q-3.87-6.43-7.74-12.85a3 3 0 0 0-0.92-1.25z"/>
   <path class="cls-1" d="M110.87,458l1.64.8a7.36,7.36,0,0,1,2.82,2.36,30,30,0,0,1,3.41,5.63c1.6,3.7,3.3,7.36,5,11,.11.25.21.5.31.73-.27.36-.61.24-.9.24-4.13,0-8.26,0-12.39,0a1.44,1.44,0,0,1-1.53-1c-2.1-4.53-4.24-9-6.39-13.56a20.66,20.66,0,0,0-1.32-2.41,5,5,0,0,0-4.77-2.16c-.41,0-.57.2-.57.59s0,.73,0,1.1q0,7.92,0,15.83c0,.32,0,.64,0,1,0,.48-.24.65-.68.63h-11c-1.1,0-1.11,0-1.11-1.15q0-22.37,0-44.74c0-1.23,0-1.24,1.3-1.24q10.6,0,21.2,0a32.77,32.77,0,0,1,5.75.55c4.53.82,7.33,3.55,8.59,7.91a16.2,16.2,0,0,1,.24,8.31c-1.05,4.46-3.63,7.65-8.11,9.09ZM96.13,446.09c0,1.33,0,2.66,0,4,0,.45,0,.82.64.82,2.83,0,5.68.2,8.44-.75a3.77,3.77,0,0,0,2.18-1.76,4.58,4.58,0,0,0-3.38-7,5,5,0,0,0-.68-.06c-2.11,0-4.22,0-6.32-.06-.65,0-.9.19-.88.86C96.15,443.43,96.13,444.76,96.13,446.09Z"/>
   <path class="cls-1" d="M94.74,337.32q.16,16.86.32,33.72c0,1.7,0,3.39.05,5.09a1.88,1.88,0,0,1-.63,1.57Q88.84,383,83.24,388.24a2.88,2.88,0,0,1-.43.35c-.73.46-1.18.33-1.51-.46a7.67,7.67,0,0,1-.45-2.29q-.45-5.28-.86-10.56-.8-10.22-1.58-20.43c-.3-3.93-.59-7.86-.89-11.8q-.79-10.36-1.59-20.71c-.2-2.56-.37-5.12-.6-7.68a1.7,1.7,0,0,1,.56-1.45q7.54-7.64,14.82-15.53a5.31,5.31,0,0,1,1.55-1.35c1-.47,1.57-.22,1.89.82a8,8,0,0,1,.21,2.32q.15,15.83.28,31.65c0,2.06,0,4.13,0,6.19Z"/>
   <path class="cls-1" d="m166.32 444.29-9.87 2h-0.14a5.3 5.3 0 0 1-2 0.31c-0.68-0.17-0.65-1.12-1-1.7a6.27 6.27 0 0 0-4.29-3.37c-5.43-1.2-9 1.57-10.39 5.44a21.74 21.74 0 0 0-1.17 7.43 29.85 29.85 0 0 0 0.81 8.19c1.35 5 5.21 7.39 10.47 6.72a15.77 15.77 0 0 0 6.44-2.63 1 1 0 0 0 0.57-1v-3c0-0.68-0.24-0.87-0.88-0.86h-5.51-1.38c-0.69 0.06-0.86-0.25-0.84-0.88v-4.68-3.17s0-1 0.95-1h17.9c0.72 0 0.94 0.22 0.94 0.94q0 9.16 0 18.31a1.4 1.4 0 0 1-0.66 1.25 47.87 47.87 0 0 1-7.56 4.75 23.74 23.74 0 0 1-8.34 2.15 33.35 33.35 0 0 1-9.74-0.23 17.56 17.56 0 0 1-13.45-10.86c-3.49-8.44-3.78-17.08-0.15-25.56 3.07-7.15 8.71-11 16.49-11.68a37.84 37.84 0 0 1 11.09 0.51 13.69 13.69 0 0 1 9.39 6.63 19.73 19.73 0 0 1 2.32 5.99z"/>
   <path class="cls-1" d="M249.66,444.89l-12,.85c-.24-.84-.44-1.63-.7-2.39a5.21,5.21,0,0,0-5-3.69,6.9,6.9,0,0,0-2.86.27,3.81,3.81,0,0,0-1.77,1.25,3.11,3.11,0,0,0,.83,4.75,11,11,0,0,0,3.22,1.18,70.24,70.24,0,0,1,9.85,3,28.72,28.72,0,0,1,2.73,1.3c4.8,2.59,7,6.74,7,12.08a16.06,16.06,0,0,1-3.13,9.8,15.06,15.06,0,0,1-9.91,5.94,32.24,32.24,0,0,1-14.18-.72,12.48,12.48,0,0,1-7.69-6,22.83,22.83,0,0,1-2.71-8.32c-.08-.59.1-.81.71-.85,3.48-.23,7-.5,10.44-.75.92-.06,1,0,1.1.94a9.57,9.57,0,0,0,1.64,4.32c2.26,3.18,6.53,3.13,8.67,2a4.58,4.58,0,0,0,2.66-4.19,4.52,4.52,0,0,0-2.5-4.15,20.6,20.6,0,0,0-4.77-1.74,44,44,0,0,1-8.55-3,15.81,15.81,0,0,1-4-2.67c-3.72-3.61-4.58-8-3.4-12.91a12.19,12.19,0,0,1,7.72-8.7A24.75,24.75,0,0,1,233.78,431a24.5,24.5,0,0,1,6.24,1,12.45,12.45,0,0,1,8.54,8.09A20.88,20.88,0,0,1,249.66,444.89Z"/>
   <path class="cls-1" d="M213.5,478.83h-12c-1.57,0-1.21.08-1.61-1.28-.53-1.8-1-3.62-1.45-5.45-.18-.71-.43-1.06-1.28-1-4.27.06-8.54,0-12.8,0a1,1,0,0,0-1.2,1c-.48,2-1,4-1.53,6-.12.47-.26.83-.88.83-4,0-8.07,0-12.09,0-.24-.5,0-.87.16-1.22q7.35-22.33,14.74-44.66c.41-1.24.42-1.25,1.67-1.25h11.43c1.41,0,1.21-.18,1.69,1.24q6.41,19.31,12.8,38.63Zm-27.31-18.06a48.42,48.42,0,0,0,9.16-.08l-4.42-16.31h-.31Z"/>
   <path class="cls-1" d="m81.05 478.64a1.48 1.48 0 0 1-0.93 0.19h-11.29c-0.78 0-1.13-0.21-1.31-1-0.46-2-1.08-3.89-1.55-5.85a1 1 0 0 0-1.22-0.93q-6.4 0-12.8 0c-0.71 0-1 0.19-1.22 0.93-0.47 2-1.05 4-1.54 6-0.14 0.58-0.34 0.86-1 0.85h-11.7a2.06 2.06 0 0 1-0.47-0.14c0.62-1.89 1.22-3.76 1.84-5.62l13.19-40a6.94 6.94 0 0 0 0.25-0.78c0.1-0.51 0.42-0.64 0.9-0.63h2.48 9.5c1.57 0 1.26-0.11 1.7 1.22q5.56 16.7 11.08 33.41zm-22.55-34.43h-0.22l-4.5 16.62h9.22z"/>
   <path class="cls-1" d="m0.29 455.18q0-10.81 0-21.62a9.26 9.26 0 0 0 0-1c-0.08-0.75 0.29-0.91 1-0.91h21.21a15 15 0 0 1 6.5 1.52 11 11 0 0 1 6 7.83 21.29 21.29 0 0 1 0 10.36c-1.45 5.73-5.55 9.15-11.56 9.79-3 0.32-6 0.15-8.94 0.2-1.57 0-1.38 0-1.38 1.44q0 7.37 0 14.74c0 1.3 0 1.31-1.23 1.31h-10.4c-1.25 0-1.2 0.05-1.2-1.2q0-11.23 0-22.46zm12.76-8.69v4.54c0 0.44 0 0.83 0.62 0.82a36.31 36.31 0 0 0 4.95-0.15 4.72 4.72 0 0 0 4.13-3.17 6.37 6.37 0 0 0 0.23-2.85 4.46 4.46 0 0 0-3.78-4.14 32.5 32.5 0 0 0-5.49-0.23c-0.59 0-0.67 0.3-0.67 0.77 0.02 1.48 0.01 2.92 0.01 4.41z"/>
   <path class="cls-1" d="m255.78 455.35v-21.76-0.69c0-1.19 0-1.2 1.2-1.2h10.47c1.32 0 1.24-0.06 1.23 1.31q0 11.22 0 22.45 0 10.81 0 21.62v1c0.05 0.59-0.18 0.82-0.78 0.81h-4.54-6.2c-1.55 0-1.39 0-1.39-1.45q0.01-11.07 0.01-22.09z"/>
   <path class="cls-1" d="M156.74,421.27l-8-8a2.59,2.59,0,0,0-1.06.91l-5.81,6.25c-.74.8-.76.8-1.45.07q-4.18-4.48-8.34-9c-.65-.71-.66-.74,0-1.39,2.82-3,5.66-5.89,8.46-8.86.46-.48.73-.51,1.2,0,2,2.15,4,4.27,6.05,6.4.28.29.49.67,1,.82l4.21-4.11c1-1,2-2,3-3,.75-.73.76-.73,1.47,0l8.28,8.65c.71.75.71.76,0,1.52l-8.17,8.75Z"/>
   <path class="cls-1" d="M367.07,409c-3.12-3.31-6-6.36-8.84-9.39-.31-.33-.36-.58,0-.93l8.75-9.67,4,4.24c.85.9,1.69,1.81,2.55,2.7.66.69.68.7,1.4,0l6.55-6.3a1.51,1.51,0,0,1,.77-.53c.55.57,1.15,1.19,1.74,1.82q3.52,3.78,7,7.56c.34.36.61.63.12,1.12-3,3-5.91,6-8.86,9,0,0-.09,0-.23.06l-3.62-3.45c-1.19-1.14-2.41-2.27-3.56-3.45-.51-.53-.82-.52-1.31,0-2,2.16-4,4.28-6,6.42A4.46,4.46,0,0,0,367.07,409Z"/>
   <path class="cls-1" d="M42.06,341.25c0,.43-.31.6-.52.82Q38.28,345.53,35,349c-.92,1-1.83,1.94-2.75,2.89-.74.76-.76.77-1.46,0q-2.9-3-5.78-6.09c-1.2-1.27-2.37-2.56-3.61-3.78-.53-.52-.46-.84,0-1.33q4.78-4.85,9.5-9.77c.62-.65.91-.22,1.3.18l8.55,8.78,1,1C41.87,341,42,341.14,42.06,341.25Z"/>
   <path class="cls-1" d="M315.48,289.88c.23.42,0,.77-.05,1.1-.51,2-1.06,4.08-1.55,6.13a1.53,1.53,0,0,1-.94,1.22q-13.29,5.63-26.56,11.3a3.86,3.86,0,0,1-.56.12c.56-2.49,1.12-4.8,1.59-7.13.15-.75.67-.91,1.21-1.14L303.5,295l11.11-4.79"/>
   <path class="cls-1" d="M374,421.23c-2.61-2.57-5.12-5-7.64-7.5-.37-.36-.43-.61,0-1,2.54-2.51,5-5,7.54-7.54a2.1,2.1,0,0,1,1,.79q3.19,3.23,6.35,6.47c.74.76.75.78,0,1.48Z"/>
   <path class="cls-2" d="M257.28,413.76c-1.7,1.61-2.25,1.61-3.62,0-.81,1.33-2.11,1.36-3.45,1.28a9,9,0,0,0-1.24,0c-.42,0-.85.1-1,.58a1.09,1.09,0,0,0,.36,1.12,4.28,4.28,0,0,0,.83.72c.48.29.46.6.15,1a6.83,6.83,0,0,0-.46.68c-.24.4-.54.38-.93.21a3.78,3.78,0,0,1-2.37-3.94c0-.18,0-.35,0-.66a24.09,24.09,0,0,1-4.5.25c-1.07,0-1.11,0-1.19-1-.24-3-.43-6-.67-9.05a1.73,1.73,0,0,1,.59-1.58,24.31,24.31,0,0,1,2.11-2.13c.48.32.29.77.29,1.15,0,2.8,0,5.6.06,8.39,0,1,0,1,1.08,1h.41c1.45,0,1.56-.1,1.14-1.49a1.32,1.32,0,0,1,.42-1.57c.58-.52,1.12-1.07,1.77-1.71a14.4,14.4,0,0,1,.71,5.28,8,8,0,0,1,3.88-.5,1.65,1.65,0,0,0,1.69-.91c.22-.38.35-.87.9-.94.34.2.32.53.34.85s-.05.89.52,1a1.34,1.34,0,0,0,1.39-.36c.28-.37.5-.77.77-1.14a.49.49,0,0,1,.44-.28c.29,0,.31.3.36.51.32,1.36.32,1.32,1.63,1.31.66,0,1-.24.81-.87-.56-1.59.3-2.58,1.36-3.51.16-.14.25-.4.6-.37a6.59,6.59,0,0,1,.61,2.85c.09,1.42,0,2.84.07,4.26,0,.57-.18.85-.78.83-1.05,0-2.11,0-3.16,0A2.05,2.05,0,0,1,257.28,413.76Z"/>
   <path class="cls-2" d="M289.26,401.64c0,1.9-.66,3.07-2.43,3.48a11.35,11.35,0,0,0-1.75.71c-.13.41.2.5.39.65,2.6,2,3.34,4.8,3.09,8,0,.39-.2.59-.59.59H269.4c-.32,0-.64,0-1,0a2.59,2.59,0,0,1-2.55-2.27,5.39,5.39,0,0,1,.92-4.18,1.23,1.23,0,0,1,.27-.3c.22-.17.45-.34.75-.19s.34.53.26.84-.26.59-.36.89c-.42,1.22.1,2,1.38,2,2.61,0,5.23,0,7.84,0,.66,0,.94-.2.84-.86,0,0,0-.09,0-.14-.07-.54-.15-1.08-.19-1.63,0-.11.1-.25.19-.35.56-.6,1.13-1.19,1.73-1.82.6.46.57,1.1.66,1.64a17.61,17.61,0,0,1,.21,2.33c0,.55.16.84.79.82,1.46,0,2.93,0,4.47,0a4,4,0,0,0-1.24-2.69,5.54,5.54,0,0,0-2.23-1.57c-.64-.24-.73-.57-.49-1.14a5,5,0,0,0,.3-.91,1.78,1.78,0,0,1,1.23-1.33C285.21,403.39,287.18,402.53,289.26,401.64Z"/>
   <path class="cls-2" d="M188.09,408a19.6,19.6,0,0,1,1.09,3.78c.44-.53.81-1,1.17-1.42a10,10,0,0,1,3.23-2.74,3.51,3.51,0,0,1,5.13,1.79c.76,1.66.48,3.43.49,5.16,0,.42-.39.45-.72.45h-8.12c-1.22,0-1.22,0-1.63,1.13a6.56,6.56,0,0,1-6.4,4.51,4.6,4.6,0,0,1-4.73-5.09,10.77,10.77,0,0,1,1.13-4.09,2.9,2.9,0,0,1,.48-.66.56.56,0,0,1,.63-.16.58.58,0,0,1,.37.67,5.42,5.42,0,0,1-.31,1,5.39,5.39,0,0,0-.47,2.54,2.81,2.81,0,0,0,2.65,2.68,4.84,4.84,0,0,0,3-.72c1.62-1,1.92-1.68,1.51-3.51a11.49,11.49,0,0,0-.83-2.47.71.71,0,0,1,.18-1C186.66,409.34,187.32,408.72,188.09,408Zm9,3.75c-.19-1.05-.55-1.72-1.5-1.91a3.82,3.82,0,0,0-3.84,1.91Z"/>
   <path class="cls-2" d="m237.6 497.23v5.94c0 1.18 0 1.18-1.22 1.19-2.15 0-2.15 0-2.15-2.06v-10.33c0-1.11 0-1 1.14-1.15a2.85 2.85 0 0 1 3.35 1.82 47.47 47.47 0 0 0 2.73 4.62c0.15 0.25 0.21 0.62 0.76 0.64v-5.18c0-2.15-0.31-1.84 1.92-1.87h0.41c1 0 1 0 1 1q0 5.78 0 11.57c0 1 0 1-1 1-2.32 0.07-2.32 0.07-3.53-1.93-0.81-1.34-1.6-2.68-2.42-4a2.51 2.51 0 0 0-0.99-1.26z"/>
   <path class="cls-2" d="m31.23 498.42c2 1.47 2.4 3.81 3.56 5.95h-3.39a1 1 0 0 1-1-0.68c-0.51-1.13-1.06-2.24-1.6-3.35a5.78 5.78 0 0 0-0.54-1 1.06 1.06 0 0 0-1.2-0.47c-0.48 0.15-0.29 0.62-0.3 0.95v3.71c0 0.6-0.23 0.82-0.81 0.79s-1.38 0-2.06 0-0.81-0.22-0.8-0.8v-3.71-8c0-1 0-1 1-1h5.91c2.2 0 3.32 0.85 3.72 2.56a3.91 3.91 0 0 1-2.12 4.7 2 2 0 0 0-0.37 0.35zm-4.55-3.57v1s0.13 0.53 0.48 0.55a5 5 0 0 0 2.3-0.28 1.18 1.18 0 0 0 0.7-1.23 1.09 1.09 0 0 0-0.63-1.13 5.35 5.35 0 0 0-2.45-0.18 0.45 0.45 0 0 0-0.39 0.48c-0.02 0.24-0.01 0.51-0.01 0.79z"/>
   <path class="cls-2" d="M393.16,495.69c1-1.31,2-2.59,3-3.94a1.88,1.88,0,0,1,1.83-.91c1.09.06,2.19,0,3.42,0a5.85,5.85,0,0,1-1.24,1.73c-.72.89-1.46,1.77-2.23,2.62a1.16,1.16,0,0,0-.14,1.58c1.13,2,2.19,4,3.27,6.06a4.17,4.17,0,0,1,.63,1.52c-1.31,0-2.57,0-3.83,0-.5,0-.57-.39-.72-.71-.52-1.12-1-2.26-1.55-3.38a3.43,3.43,0,0,0-.85-1.41c-.55.65-1.13,1.28-1.64,2-.36.47-.17,1.07-.18,1.61,0,2.23.28,1.92-1.87,1.93-2,0-1.74.27-1.74-1.77q0-5.3,0-10.61c0-1.12,0-1.12,1.14-1.14,2.46,0,2.46,0,2.46,2.43v2.32Z"/>
   <path class="cls-2" d="m204.29 497.66a9.8 9.8 0 0 1-0.46 3.11 5.14 5.14 0 0 1-4.2 3.68 8 8 0 0 1-3.67-0.18 5.21 5.21 0 0 1-3.62-3.8 9.67 9.67 0 0 1-0.07-5.42c0.83-3.09 3.14-4.65 6.51-4.43a5.61 5.61 0 0 1 5.4 5.25c0.08 0.6 0.08 1.2 0.11 1.79zm-8.69-0.11a6.47 6.47 0 0 0 0.41 2.69 2.24 2.24 0 0 0 2.23 1.31 2 2 0 0 0 2-1.36 7.61 7.61 0 0 0 0.06-5 2.22 2.22 0 0 0-2.21-1.53 2.31 2.31 0 0 0-2.18 1.58 7 7 0 0 0-0.31 2.31z"/>
   <path class="cls-2" d="m346.76 490.61a5.66 5.66 0 0 1 6 5.28 11.17 11.17 0 0 1-0.28 4.64 5.09 5.09 0 0 1-4.44 4c-4.57 0.66-7.15-1.84-7.44-5.82a10.43 10.43 0 0 1 0.21-3.42 5.69 5.69 0 0 1 5.95-4.68zm2.43 7.16a6.08 6.08 0 0 0-0.34-2.6 2.28 2.28 0 0 0-2.24-1.49 2.15 2.15 0 0 0-2.1 1.49 7.5 7.5 0 0 0 0 4.85 2.22 2.22 0 0 0 2.21 1.55 2.15 2.15 0 0 0 2.19-1.54 7.32 7.32 0 0 0 0.28-2.26z"/>
   <path class="cls-2" d="M226.32,415.17c-.64-.11-1.19-.16-1.71-.29a1.89,1.89,0,0,1-1.46-1.32c-.32-1,.15-1.71,1.21-1.72,1.65,0,3.31,0,5,0,.78,0,1.26-.14,1.52-1a6,6,0,0,1,1.68-2.64c1.49-1.36,3.11-1.17,4.12.58a7.52,7.52,0,0,1,1,5.16c-.17,1-.35,1.07-1.3.92-1.36-.22-2.71-.49-4.05-.75-.51-.1-1-.18-1.36.33a1.48,1.48,0,0,1-1.35.57c-1-.11-1.23.39-1.49,1.19a6.68,6.68,0,0,1-2,2.93,5.93,5.93,0,0,1-4.82,1.57,4.35,4.35,0,0,1-3.84-3.75,9.44,9.44,0,0,1,1.1-5.58,2.06,2.06,0,0,1,.42-.54c.16-.16.36-.31.61-.19a.52.52,0,0,1,.3.57,8.74,8.74,0,0,1-.28,1.2,8.06,8.06,0,0,0-.48,2.28,2.62,2.62,0,0,0,1.87,2.73A4.58,4.58,0,0,0,226.32,415.17Zm9.25-3.36c-.26-1.3-.69-1.91-1.39-1.88-.91,0-1.32.66-1.57,1.5A8.72,8.72,0,0,0,235.57,411.81Z"/>
   <path class="cls-2" d="m133.93 497.5v-5.78c0-0.66 0.22-0.88 0.87-0.87h8.13c0.6 0 0.77 0.24 0.8 0.81 0.11 2 0.13 2-1.81 2h-3.44c-0.7 0-1 0.19-0.94 0.92a3.79 3.79 0 0 1 0 0.69c0 0.49 0.23 0.63 0.67 0.63q2 0 4 0c1.09 0 1.11 0 1.11 1 0 2 0.15 1.68-1.68 1.7h-3.44c-0.46 0-0.69 0.17-0.66 0.64a1 1 0 0 1 0 0.14c-0.13 2-0.13 2 1.8 2h3.86c0.52 0 0.7 0.19 0.74 0.72 0.17 2.3 0.18 2.3-2.05 2.3s-4.59 0-6.89 0c-1 0-1 0-1.05-1.08-0.03-1.97-0.02-3.89-0.02-5.82z"/>
   <path class="cls-2" d="M300.34,490.62a6.07,6.07,0,0,1,2.28.31,3.4,3.4,0,0,1,1.93,1.47c.38.59.83,1.32.6,1.9s-1.15.31-1.76.41c-.22,0-.46,0-.69,0a.88.88,0,0,1-1-.61,1.66,1.66,0,0,0-2.13-1,1,1,0,0,0-.84,1,.86.86,0,0,0,.62,1c.34.12.7.22,1,.32a18.55,18.55,0,0,1,2.86.95,3.69,3.69,0,0,1,2.4,3.24,4.41,4.41,0,0,1-1.86,4.18,7.32,7.32,0,0,1-7,0,4.83,4.83,0,0,1-1.86-3.26.42.42,0,0,1,.42-.56c.55-.05,1.1-.09,1.64-.17.79-.12,1.34-.08,1.58.94a1.76,1.76,0,0,0,2,1.25,1.4,1.4,0,0,0,.6-2.71,10.62,10.62,0,0,0-1.3-.43,12.6,12.6,0,0,1-2.68-1,3.76,3.76,0,0,1,.53-6.76A5.88,5.88,0,0,1,300.34,490.62Z"/>
   <path class="cls-2" d="M99.19,504.25a6.65,6.65,0,0,1-1.91.11,4,4,0,0,1-1.62-.11c-.51-.24-.43-.95-.58-1.46a.79.79,0,0,0-.89-.66c-1,0-1.92,0-2.88,0-.56,0-.78.22-.93.75-.44,1.49-.47,1.5-2,1.48a6.65,6.65,0,0,1-1.89-.09,3.07,3.07,0,0,1,.27-1.23c1.23-3.73,2.48-7.46,3.68-11.21.23-.71.52-1.09,1.33-1s2.07-.32,2.83.17.76,1.7,1.07,2.59c1.06,3.12,2.08,6.25,3.12,9.37C98.91,503.36,99,503.75,99.19,504.25Zm-6.39-9.82a24.15,24.15,0,0,0-1.25,4.29c-.13.57.4.55.73.49.57-.11,1.28.4,1.7-.36,0-.06,0-.18,0-.27Z"/>
   <path class="cls-2" d="m203.65 401v2.89 7c0 0.5 0 0.9 0.7 0.89h6.33c-0.71-2.33-1.82-3.23-4.46-3.66a13.94 13.94 0 0 1 1.39-2 0.93 0.93 0 0 1 0.83-0.38 2.92 2.92 0 0 1 2.32 1 11.11 11.11 0 0 1 1.05 1.44 8.79 8.79 0 0 0 1.76 2.44c1.36 1 1.13 2.38 1.13 3.73a0.58 0.58 0 0 1-0.67 0.66h-11.53c-1 0-1.09 0-1.17-1-0.25-3.06-0.45-6.13-0.69-9.2a1.45 1.45 0 0 1 0.52-1.33 23.25 23.25 0 0 1 2.49-2.48z"/>
   <path class="cls-2" d="M365.14,497.53a8.23,8.23,0,0,1,.7-3.75,5.43,5.43,0,0,1,5.46-3.18,4.93,4.93,0,0,1,4.9,3.09c.43,1,.39,1-.6,1.31-.4.11-.81.17-1.2.3-.57.19-1,.24-1.29-.49a1.92,1.92,0,0,0-2.14-1.15,2.11,2.11,0,0,0-1.88,1.59,8.42,8.42,0,0,0,.05,4.87,1.86,1.86,0,0,0,1.85,1.37,2.09,2.09,0,0,0,2.13-1.21c.21-.4.11-1,.57-1.19s1,.21,1.56.37c1.64.52,1.63.53.91,2.17a4.45,4.45,0,0,1-3.47,2.81c-4.46.76-7.1-1.55-7.54-6C365.11,498.18,365.14,497.86,365.14,497.53Z"/>
   <path class="cls-2" d="m0.26 497.55v-5.77c0-0.7 0.2-1 0.94-0.95 1.83 0.05 3.66 0 5.49 0 2.3 0.06 3.52 1.29 3.65 3.59a6.22 6.22 0 0 1-0.11 1.91 3.51 3.51 0 0 1-2.88 2.78 9.41 9.41 0 0 1-2.46 0.18c-0.69 0-1 0.18-1 0.92 0.05 1.1 0 2.2 0 3.3 0 0.57-0.17 0.85-0.78 0.82s-1.28 0-1.92 0c-0.93 0-0.93 0-1-1v-0.14q0.07-2.82 0.07-5.64zm3.66-2.48v0.41c0 1.2 0.15 1.32 1.35 1.13a2.65 2.65 0 0 0 0.9-0.29 1.41 1.41 0 0 0 0.58-1.55 1.22 1.22 0 0 0-1-1.14c-1.45-0.37-1.83-0.08-1.83 1.45z"/>
   <path class="cls-2" d="M288.7,419.83a27.93,27.93,0,0,0,2.91-3.57,3.24,3.24,0,0,0,0-4c-.72-1.1-.7-1.12.15-2l1.37-1.46a4.85,4.85,0,0,1,1.08,2.38c.12.49.33.71.84.65a4.09,4.09,0,0,1,1,0,1.84,1.84,0,0,0,2.11-1.14c.15-.32.33-.67.77-.71.34.19.32.53.34.85s-.06.89.52,1,1,.12,1.39-.36.51-.76.77-1.14c.1-.15.23-.31.44-.28s.31.3.36.51c.11.42-.14,1,.4,1.21a5.9,5.9,0,0,0,1.63.07.39.39,0,0,0,.43-.43,2.05,2.05,0,0,0,0-.68,2.33,2.33,0,0,1,1-2.83c.32-.24.43-.72,1-.8a8.33,8.33,0,0,1,.65,3.29c.08,1.23,0,2.48,0,3.72,0,.94,0,1-1,1-.83,0-1.65,0-2.48,0a2.22,2.22,0,0,1-2.32-1.28c-.68.49-1.1,1.34-2.06,1.21-.72-.09-1.1-.61-1.56-1.21a3,3,0,0,1-3.08,1.28c-.6-.06-.88.17-1,.8a14.92,14.92,0,0,1-2.27,5c-.32.49-.6.59-1.1.27S289.51,420.3,288.7,419.83Z"/>
   <path class="cls-2" d="M62.93,490.85c.85,0,1.67.06,2.49,0s1.13.26,1.33,1c.61,2.35,1.27,4.68,1.92,7,.12.44.26.87.38,1.31.46-.09.42-.46.5-.75.7-2.56,1.43-5.11,2.08-7.69.17-.65.44-.92,1.11-.89s1.64,0,2.42,0c.3.44.1.78,0,1.11-1.23,3.79-2.48,7.57-3.68,11.37-.24.76-.57,1.15-1.43,1.05s-2,.3-2.69-.16-.73-1.61-1-2.46c-1.06-3.07-2.08-6.16-3.1-9.24A2.92,2.92,0,0,1,62.93,490.85Z"/>
   <path class="cls-2" d="m115.93 490.85h4.68c0.71 0 1 0.22 0.95 0.94-0.07 2.87 0.35 2.28-2.29 2.35a5.47 5.47 0 0 1-0.69 0c-0.67-0.07-0.87 0.24-0.86 0.88v7.84c0 1.64 0.14 1.5-1.45 1.51-2.14 0-2.14 0-2.14-2.2s0-4.68 0-7c0-1 0-1-1-1h-1.1c-0.56-0.07-1.39 0.34-1.62-0.3a5.36 5.36 0 0 1 0-2.72c0.07-0.36 0.54-0.25 0.85-0.25z"/>
   <path class="cls-2" d="m261.75 499.22v-4.12c0-0.69-0.19-1-0.93-1s-1.37 0-2.06 0-0.8-0.16-0.84-0.77c-0.16-2.52-0.18-2.52 2.39-2.52s5.22 0 7.84 0c1 0 1 0 1 1 0 2.75 0.34 2.21-2.21 2.27a4.88 4.88 0 0 1-0.69 0c-0.75-0.09-0.92 0.3-0.91 1v8.11c0 1.13 0 1.16-1.12 1.15-0.77 0-1.72 0.32-2.26-0.16s-0.18-1.47-0.21-2.23c-0.03-0.9 0-1.82 0-2.73z"/>
   <path class="cls-2" d="m323.07 490.85h4.54c0.7 0 1 0.17 1 0.92 0.06 2.37 0.1 2.37-2.28 2.38h-0.14c-1.44 0-1.34-0.08-1.34 1.35v7.57c0 1.3 0 1.32-1.24 1.31-0.72 0-1.62 0.31-2.13-0.15s-0.21-1.47-0.22-2.23q-0.05-3.44 0-6.88c0-0.7-0.2-1-0.94-1s-1.29 0-1.93 0-1-0.16-1-0.91c0.07-2.94-0.37-2.31 2.25-2.37 1.14-0.01 2.29 0.01 3.43 0.01z"/>
   <path class="cls-2" d="M179.16,496c0,1.38.07,2.76,0,4.13a4.76,4.76,0,0,1-7.31,3.93,4.36,4.36,0,0,1-2.06-3.68c0-.41.19-.56.56-.61s.9-.16,1.36-.22a2.21,2.21,0,0,1,1.22,0c.39.19.22.66.32,1,.18.59.47,1,1.14,1a1.09,1.09,0,0,0,1.11-1,7.19,7.19,0,0,0,.1-1.37c0-2.39,0-4.77,0-7.16,0-1,0-1.08,1.07-1.05.81,0,1.82-.37,2.37.22s.14,1.49.16,2.26,0,1.74,0,2.62Z"/>
   <path class="cls-2" d="m50.48 497.64v5.77c0 0.69-0.18 1-0.92 1a15.2 15.2 0 0 0-1.92 0c-0.6 0-0.81-0.23-0.79-0.81v-2.89-8.8c0-1 0-1 1-1 2.64-0.1 2.64-0.1 2.64 2.52q-0.01 2.08-0.01 4.21z"/>
   <path class="cls-2" d="m220.79 497.52v5.92c0 0.71-0.22 1-0.94 0.94a14.6 14.6 0 0 0-1.93 0c-0.62 0-0.78-0.26-0.78-0.82q0-5.92 0-11.84c0-0.66 0.22-0.85 0.87-0.88 2.76-0.11 2.76-0.14 2.76 2.55q0.03 2.06 0.02 4.13z"/>
   <path class="cls-2" d="M270.34,406.66c.12-.15.26-.33.41-.49.9-1,.9-.95,1.86-.08a2.22,2.22,0,0,0,.33.21,1.6,1.6,0,0,0,.67-.49l.58-.51a2.06,2.06,0,0,1,.89.71c.69.7.69.72.07,1.41-.82.91-.79,1.13-1.75.08a2.2,2.2,0,0,0-.32-.26.56.56,0,0,0-.13-.05c-1.4,1.21-1.4,1.21-2.57-.36A.66.66,0,0,1,270.34,406.66Z"/>
   <path class="cls-2" d="M302,404.67c-.26.2-.14.38,0,.56a.4.4,0,0,0,.6.06,3.28,3.28,0,0,0,.5-.46c.37-.44.68-.33,1,0a7.59,7.59,0,0,0,.57.59.51.51,0,0,1,0,.82,6.55,6.55,0,0,0-.45.52c-.4.52-.8.72-1.28.08a4,4,0,0,0-.58-.53c-.57.16-.73.74-1.31,1a7,7,0,0,1-1.31-1.39c.94-1.29.94-1.29,2.21-1.27Z"/>
   <path class="cls-2" d="M208.5,400.91c.12.1.26.21.39.33,1.34,1.29,1.33,1.36,0,2.57-.29.25-.47.31-.8,0-1.37-1.12-1.4-1.37-.14-2.57A1,1,0,0,1,208.5,400.91Z"/>
   <path class="cls-2" d="M302,404.68c.12-.33-.15-.49-.31-.69a1,1,0,0,1,.37-1.65c.53-.25.68.3,1,.53s.53.42.21.79a3.74,3.74,0,0,1-1.25,1Z"/>
   <path class="cls-2" d="m197.08 411.77h-5.33a3.82 3.82 0 0 1 3.84-1.91c0.94 0.14 1.3 0.86 1.49 1.91z"/>
   <path class="cls-2" d="m235.57 411.81a8.72 8.72 0 0 1-3-0.38c0.26-0.85 0.66-1.48 1.57-1.5 0.74-0.02 1.17 0.59 1.43 1.88z"/>
   <path class="cls-3" d="m192.3 213.16q0 35.66 0 71.32a11.33 11.33 0 0 1-0.14 2.19 4.4 4.4 0 0 1-4 3.58 4.35 4.35 0 0 1-4.37-2.48 9.44 9.44 0 0 1-0.52-1.56q-9.34-35.44-18.67-70.87l-13.79-52.39c-0.81-3.06-1.56-6.13-2.44-9.17a4.7 4.7 0 0 1 3.15-5.86q17.3-5.7 34.56-11.54a4.64 4.64 0 0 1 6.23 4.36v1.24q-0.01 35.59-0.01 71.18z"/>
   <path class="cls-3" d="m200.75 175.72v-17.62a5 5 0 0 1 1.83-4.38 4.47 4.47 0 0 1 4.3-0.61l17.91 5.83 73.88 24 45.25 14.68c0.35 0.11 0.69 0.25 1 0.38a4.45 4.45 0 0 1-1.63 8.62c-2.57-0.06-5.13-0.22-7.7-0.37-2.11-0.12-4.21-0.29-6.32-0.41l-17.45-0.94-19.37-1.1-19.45-1.11-19.65-1.11-19.23-1.09-19.51-1.1-8.79-0.51a4.62 4.62 0 0 1-4.82-4.88c-0.09-2.34-0.07-4.68-0.07-7v-11.29z"/>
   <path class="cls-3" d="M261.9,161.45a4.5,4.5,0,0,1-1.49-.23q-17.5-5.54-35-11.08a4.47,4.47,0,0,1-3.29-4.94,5.22,5.22,0,0,1,1.14-2.47l15.86-21.83L300.06,37q4-5.51,8-11a4.71,4.71,0,0,1,2.69-2,4.45,4.45,0,0,1,4.5,1.39,4,4,0,0,1,.86,4.47c-1.06,2.84-2.18,5.65-3.27,8.47L292.44,90.76,271,146c-1.58,4.06-3.15,8.13-4.74,12.18A4.48,4.48,0,0,1,261.9,161.45Z"/>
   <path class="cls-3" d="m60 168.12a4.29 4.29 0 0 1-3.94-2.74 4.21 4.21 0 0 1 0.78-4.73 8.39 8.39 0 0 1 1.64-1.25l50.24-32.31 64-41.17a7.16 7.16 0 0 1 2.55-1.32 4.55 4.55 0 0 1 4.79 2c2.73 3.74 5.5 7.46 8.26 11.19q6.58 8.91 13.16 17.83a4.84 4.84 0 0 1 1.22 3.8 4.58 4.58 0 0 1-3.38 3.78l-7.45 2.43-116.65 37.82-12.94 4.21a6.22 6.22 0 0 1-2.28 0.46z"/>
   <path class="cls-3" d="M221.83,126.47a4.42,4.42,0,0,1-3.38-2.07c-2.55-3.54-5.12-7.05-7.68-10.58L174.68,64.17,137.31,12.72c-1.32-1.82-2.65-3.63-4-5.46a4.45,4.45,0,0,1,2.47-7.1A4.4,4.4,0,0,1,140,1.29l6.29,5.14,37.2,30.39,39.65,32.4L246.07,88l.53.44a4.36,4.36,0,0,1,.76,6.16c-2.59,3.68-5.22,7.33-7.83,11l-13,18.25a12.85,12.85,0,0,1-1,1.3A4.51,4.51,0,0,1,221.83,126.47Z"/>
   <path class="cls-3" d="M314.61,290.25l.88-.37"/>
  </g>
 </g>
</svg>
